<svg xmlns="http://www.w3.org/2000/svg" viewBox="0 0 1600 900" preserveAspectRatio="none">
  <defs>
    <linearGradient id="trace" x1="0" x2="1" y1="0" y2="0">
      <stop offset="0" stop-color="#ffffff" stop-opacity=".14"/>
      <stop offset=".45" stop-color="#ffffff" stop-opacity=".34"/>
      <stop offset="1" stop-color="#2f8cff" stop-opacity=".16"/>
    </linearGradient>
    <linearGradient id="traceBlue" x1="0" x2="1" y1="0" y2="1">
      <stop offset="0" stop-color="#0f5fa8" stop-opacity=".16"/>
      <stop offset="1" stop-color="#ffffff" stop-opacity=".22"/>
    </linearGradient>
    <filter id="softGlow" x="-40%" y="-40%" width="180%" height="180%">
      <feGaussianBlur stdDeviation="4" result="blur"/>
      <feMerge>
        <feMergeNode in="blur"/>
        <feMergeNode in="SourceGraphic"/>
      </feMerge>
    </filter>
  </defs>

  <rect width="1600" height="900" fill="none"/>

  <g fill="none" stroke-linecap="round" stroke-linejoin="round">
    <path d="M82 162 H280 Q320 162 320 202 V300 Q320 340 360 340 H500" stroke="url(#trace)" stroke-width="2.5"/>
    <path d="M118 566 H314 Q354 566 354 526 V474 Q354 434 394 434 H612" stroke="url(#trace)" stroke-width="2.2"/>
    <path d="M1046 170 H1288 Q1330 170 1330 212 V316 Q1330 358 1372 358 H1518" stroke="url(#traceBlue)" stroke-width="2.3"/>
    <path d="M1064 598 H1230 Q1268 598 1268 560 V506 Q1268 468 1306 468 H1512" stroke="url(#trace)" stroke-width="2.2"/>
    <path d="M700 102 V220 Q700 250 730 250 H846 Q876 250 876 280 V382" stroke="url(#traceBlue)" stroke-width="2.2"/>
    <path d="M878 720 V626 Q878 596 908 596 H1016 Q1046 596 1046 566 V474" stroke="url(#trace)" stroke-width="2.1"/>
  </g>

  <g opacity=".52" fill="none" stroke="#ffffff" stroke-width="1.7" stroke-linecap="round">
    <path d="M112 728 h98 m28 0 h72 m42 0 h128"/>
    <path d="M1118 744 h82 m34 0 h92 m38 0 h126"/>
    <path d="M474 154 h74 m28 0 h114"/>
    <path d="M1168 112 h104 m34 0 h64"/>
  </g>

  <g filter="url(#softGlow)">
    <circle cx="280" cy="162" r="5" fill="#ffffff" opacity=".34"/>
    <circle cx="500" cy="340" r="5" fill="#2f8cff" opacity=".22"/>
    <circle cx="612" cy="434" r="4" fill="#ffffff" opacity=".32"/>
    <circle cx="846" cy="250" r="5" fill="#0f5fa8" opacity=".2"/>
    <circle cx="1046" cy="566" r="5" fill="#ffffff" opacity=".3"/>
    <circle cx="1288" cy="170" r="5" fill="#ffffff" opacity=".32"/>
    <circle cx="1512" cy="468" r="4" fill="#2f8cff" opacity=".22"/>
  </g>

  <g opacity=".22" fill="none" stroke="#ffffff" stroke-width="2">
    <rect x="1180" y="250" width="164" height="118" rx="18"/>
    <path d="M1180 292 h-54 M1180 326 h-72 M1344 292 h66 M1344 326 h92"/>
    <path d="M1222 250 v-52 M1262 250 v-70 M1302 250 v-48 M1222 368 v54 M1262 368 v72 M1302 368 v52"/>
    <rect x="214" y="626" width="150" height="90" rx="14"/>
    <path d="M214 654 h-58 M214 688 h-76 M364 654 h52 M364 688 h72"/>
  </g>

  <g opacity=".16" fill="none" stroke="#0f5fa8" stroke-width="1.8">
    <path d="M970 234 l42 -24 l42 24 v48 l-42 24 l-42 -24z"/>
    <path d="M1008 620 l48 -27 l48 27 v54 l-48 27 l-48 -27z"/>
    <path d="M420 220 l36 -21 l36 21 v42 l-36 21 l-36 -21z"/>
  </g>
</svg>
